# xmcd
#
# Track frame offsets:
#	150
#	76178
#	140578
#
# Disc length: 4250 seconds
#
# Revision: 0
# Processed by: cddbd v1.4PL0 Copyright (c) Steve Scherf et al.
# Submitted via: dBpowerAMP V4.0
#
DISCID=1d109803
DTITLE=Tio Tom - jona
DYEAR=1900
DGENRE=
TTITLE0=Mega 1
TTITLE1=Mega 2
TTITLE2=Mega 3
EXTD=jona
EXTT0=
EXTT1=
EXTT2=
PLAYORDER=
